<svg xmlns="http://www.w3.org/2000/svg" width="16.983" height="16" viewBox="0 0 16.983 16">
  <g id="JobAdd" transform="translate(-407 -185)">
    <rect id="Rectangle_1557" data-name="Rectangle 1557" width="16" height="16" transform="translate(407 185)" fill="none"/>
    <path id="Subtraction_43" data-name="Subtraction 43" d="M21060.518,19061.83h-2.764a.272.272,0,0,1-.273-.273v-4.506a.273.273,0,0,0-.275-.27h-2.162a.275.275,0,0,0-.275.27v4.506a.27.27,0,0,1-.27.273h-2.227a.272.272,0,0,1-.27-.273v-5.723a.533.533,0,0,1,.232-.406l5.854-3.373a.48.48,0,0,1,.236-.057.472.472,0,0,1,.234.057l5.854,3.373a.533.533,0,0,1,.232.406v.781c-.109-.01-.215-.014-.322-.014a3.991,3.991,0,0,0-3.02,1.375h-1.65a.275.275,0,0,0-.273.27v1.871a.275.275,0,0,0,.273.27h.678c0,.064-.006.131-.006.213a4.064,4.064,0,0,0,.191,1.229Z" transform="translate(-20643.322 -18863.6)" fill="#009098"/>
    <g id="noun_House_2597048" transform="translate(400.794 173.393)">
      <g id="Group_15615" data-name="Group 15615" transform="translate(6.778 13.384)">
        <path id="Path_7560" data-name="Path 7560" d="M21.581,18.2a.418.418,0,0,0-.148-.564L18,15.615l.392.231V14.432a.274.274,0,0,0-.272-.277h-.883a.274.274,0,0,0-.272.277v.573l-2.757-1.622L6.981,17.636a.417.417,0,0,0-.148.564.4.4,0,0,0,.554.151l6.821-4.013,6.82,4.013A.4.4,0,0,0,21.581,18.2Z" transform="translate(-6.778 -13.384)" fill="#7fc7cb"/>
        <rect id="Rectangle_1556" data-name="Rectangle 1556" width="11.857" height="0.558" transform="translate(0 11.889)" fill="#0ec2cc"/>
      </g>
    </g>
    <g id="Group_15688" data-name="Group 15688" transform="translate(417.336 193.295)">
      <path id="Icon_ionic-ios-add-circle" data-name="Icon ionic-ios-add-circle" d="M6.375,3.375a3,3,0,1,1-3,3A3,3,0,0,1,6.375,3.375ZM5.07,6.606H6.144V7.68a.231.231,0,0,0,.462,0V6.606H7.68a.231.231,0,1,0,0-.462H6.606V5.07a.231.231,0,0,0-.462,0V6.144H5.07a.231.231,0,0,0,0,.462Z" transform="translate(-2.728 -2.69)" fill="#00b564"/>
    </g>
  </g>
</svg>
