<svg xmlns="http://www.w3.org/2000/svg" width="16" height="16" viewBox="0 0 16 16">
  <g id="My_calendar" transform="translate(-290 -47)">
    <path id="Path_7634" data-name="Path 7634" d="M0,0H16V16H0Z" transform="translate(290 47)" fill="none"/>
    <path id="Path_7635" data-name="Path 7635" d="M18.714,9.818v8.1a.624.624,0,0,1-.623.623H5.623A.624.624,0,0,1,5,17.922v-8.1Zm-3.74,5.974H15.6a.623.623,0,1,0,0-1.247h-.623a.623.623,0,0,0,0,1.247Zm-6.857,0H8.74a.623.623,0,0,0,0-1.247H8.117a.623.623,0,0,0,0,1.247Zm3.429,0h.623a.623.623,0,0,0,0-1.247h-.623a.623.623,0,0,0,0,1.247ZM14.974,13.3H15.6a.623.623,0,1,0,0-1.247h-.623a.623.623,0,0,0,0,1.247Zm-3.429,0h.623a.623.623,0,0,0,0-1.247h-.623a.623.623,0,0,0,0,1.247Zm-3.429,0H8.74a.623.623,0,0,0,0-1.247H8.117a.623.623,0,0,0,0,1.247Z" transform="translate(286.143 43)" fill="#009098" fill-rule="evenodd"/>
    <path id="Path_7636" data-name="Path 7636" d="M14.974,7.247V6.623a.623.623,0,0,1,1.247,0v.623h1.87a.624.624,0,0,1,.623.623V9.74H5V7.87a.624.624,0,0,1,.623-.623h1.87V6.623a.623.623,0,0,1,1.247,0v.623h2.494V6.623a.623.623,0,1,1,1.247,0v.623Z" transform="translate(286.143 42.454)" fill="#0ec2cc" fill-rule="evenodd"/>
    <path id="Path_7639" data-name="Path 7639" d="M0,0H16V16H0Z" transform="translate(290 47)" fill="none"/>
  </g>
</svg>
