<svg xmlns="http://www.w3.org/2000/svg" width="16" height="16" viewBox="0 0 16 16">
  <g id="My_tasks" transform="translate(-292 -61)">
    <path id="Path_7549" data-name="Path 7549" d="M0,0H16V16H0Z" transform="translate(292 61)" fill="none"/>
    <g id="noun_File_Edit_3729476" data-name="noun_File Edit_3729476" transform="translate(293.123 61.803)">
      <path id="Path_7472" data-name="Path 7472" d="M21.3,21.458l-2.04,1.552a.839.839,0,0,1-.524.176.859.859,0,0,1-.863-.89l.109-2.554a.932.932,0,0,1,.1-.369l3.827-7.33a1.751,1.751,0,0,1,.276-.4v-.058a1.217,1.217,0,0,0-1.214-1.215H14.855v2.4a1.216,1.216,0,0,1-1.212,1.215H11.25v9.573a1.216,1.216,0,0,0,1.214,1.212h8.507a1.214,1.214,0,0,0,1.214-1.212V19.909l-.665,1.273A.92.92,0,0,1,21.3,21.458Zm-7.96-5.684h4.921a.288.288,0,0,1,0,.576H13.336a.288.288,0,0,1,0-.576Zm3.381,6.835H13.336a.288.288,0,0,1,0-.576h3.381a.288.288,0,0,1,0,.576Zm-3.669-2.372a.287.287,0,0,1,.288-.288h2.743a.288.288,0,0,1,0,.576H13.336A.289.289,0,0,1,13.048,20.237Zm3.894-1.8H13.336a.288.288,0,0,1,0-.576h3.606a.288.288,0,0,1,0,.576Z" transform="translate(-11.25 -10.373)" fill="#009098"/>
      <path id="Path_7473" data-name="Path 7473" d="M13.942,13.708a.64.64,0,0,0,.64-.64V10.841l-2.866,2.866Z" transform="translate(-11.544 -10.669)" fill="#7fc7cb"/>
      <path id="Path_7474" data-name="Path 7474" d="M42.272,13.812a1.372,1.372,0,0,0-1.848.58l-.751,1.438L42.1,17.1l.751-1.438A1.372,1.372,0,0,0,42.272,13.812Z" transform="translate(-29.255 -12.451)" fill="#0ec2cc"/>
      <path id="Path_7475" data-name="Path 7475" d="M31.032,39.121a.273.273,0,0,0,.133.032.28.28,0,0,0,.176-.058l1.882-1.432-2.244-1.173-.1,2.362A.294.294,0,0,0,31.032,39.121Z" transform="translate(-23.681 -26.916)" fill="#0ec2cc"/>
      <rect id="Rectangle_1503" data-name="Rectangle 1503" width="5.803" height="2.74" transform="matrix(0.463, -0.886, 0.886, 0.463, 7.464, 9.023)" fill="#0ec2cc"/>
    </g>
  </g>
</svg>
