<svg xmlns="http://www.w3.org/2000/svg" width="16" height="16" viewBox="0 0 16 16">
  <g id="Time_tracking" transform="translate(2 -6)">
    <path id="Path_7640" data-name="Path 7640" d="M0,0H16V16H0Z" transform="translate(-2 6)" fill="none"/>
    <g id="Group_15693" data-name="Group 15693" transform="translate(-0.497 6.758)">
      <path id="Path_7637" data-name="Path 7637" d="M9.628,10.169v-3.1a1.035,1.035,0,0,1,2.049-.212,1.006,1.006,0,0,1,.018.2v.859a1,1,0,0,1,.772.3,1.094,1.094,0,0,1,.278-.056,5.836,5.836,0,0,0,.383-1.848h-.416a.266.266,0,0,1,0-.532h.417a5.8,5.8,0,0,0-1.53-3.7l-.3.3A.266.266,0,1,1,10.928,2l.3-.3A5.854,5.854,0,0,0,7.527.172V.591A.266.266,0,1,1,7,.591V.172A5.853,5.853,0,0,0,3.3,1.7l.3.3a.266.266,0,0,1-.376.376l-.3-.3a5.8,5.8,0,0,0-1.532,3.7h.422a.266.266,0,1,1,0,.532H1.389a5.8,5.8,0,0,0,1.532,3.7l.3-.3a.266.266,0,1,1,.376.376l-.295.295A5.884,5.884,0,0,0,7,11.915v-.421a.266.266,0,0,1,.532,0v.416c.178-.008.356-.028.536-.051-.077-.16-.155-.321-.227-.477a1.1,1.1,0,0,1,.4-1.372A1.09,1.09,0,0,1,9.628,10.169ZM7.262,7.126a1.083,1.083,0,0,1-1.047-.817H3.647a.266.266,0,1,1,0-.532H6.215a1.083,1.083,0,0,1,1.047-.817,1.06,1.06,0,0,1,.367.069L9.776,1.836a.266.266,0,0,1,.441.3L8.068,5.327a1.078,1.078,0,0,1-.806,1.8Z" transform="translate(-1.389 -0.172)" fill="#009098"/>
      <path id="Path_7638" data-name="Path 7638" d="M18.1,13.01v.414a.266.266,0,1,1-.532,0v-.493a.536.536,0,0,0-.282-.19s-.01,0-.015,0a.5.5,0,0,0-.249.021v.666a.266.266,0,1,1-.532,0v-.746a.494.494,0,0,0-.432-.188v.933a.266.266,0,1,1-.532,0V12.244c0-.029,0-.056,0-.08V11.1a.539.539,0,0,0-.007-.089.5.5,0,0,0-1,.1v3.868a.3.3,0,0,1-.151.337.311.311,0,0,1-.391-.126l-.1-.17c-.066-.116-.132-.231-.2-.345a.534.534,0,0,0-.468-.27.649.649,0,0,0-.334.1.571.571,0,0,0-.2.694c.214.46.445.949.706,1.415a9.444,9.444,0,0,0,.707,1.035l.089.118a2.283,2.283,0,0,0,1.1.8,2.6,2.6,0,0,0,1.009.124,3.164,3.164,0,0,0,1.114-.222,1.894,1.894,0,0,0,1.222-1.667c.028-.254.034-.508.039-.764,0-.124.006-.247.01-.371.022-.528.039-1.058.056-1.586l.018-.566a.523.523,0,0,0-.226-.471A.5.5,0,0,0,18.1,13.01Z" transform="translate(-5.746 -4.216)" fill="#0ec2cc"/>
      <circle id="Ellipse_86" data-name="Ellipse 86" cx="0.552" cy="0.552" r="0.552" transform="translate(5.321 5.319)" fill="#7fc7cb"/>
    </g>
  </g>
</svg>
