<svg xmlns="http://www.w3.org/2000/svg" width="16" height="16" viewBox="0 0 16 16">
  <g id="help" transform="translate(-399 -83)">
    <rect id="Rectangle_1579" data-name="Rectangle 1579" width="16" height="16" transform="translate(399 83)" fill="none"/>
    <g id="Group_15678" data-name="Group 15678" transform="translate(-721.77 -39.438)">
      <path id="Path_6222" data-name="Path 6222" d="M13.363,34.378h-.9a5.582,5.582,0,0,0-10.292,0H1.288A1.289,1.289,0,0,0,0,35.665v1.717A1.289,1.289,0,0,0,1.288,38.67H3.05l-.184-.563a4.728,4.728,0,1,1,8.913-3.159l0,.01a3.718,3.718,0,0,1,.2.784,4.724,4.724,0,0,1-.212,2.353l0,.005a4.712,4.712,0,0,1-4.436,3.146,1.288,1.288,0,1,0,1.279,1.288v-.579a5.573,5.573,0,0,0,3.845-3.284h.9a1.289,1.289,0,0,0,1.288-1.288V35.665A1.289,1.289,0,0,0,13.363,34.378Z" transform="translate(1121.444 93.059)" fill="#009098"/>
      <path id="Path_6223" data-name="Path 6223" d="M121,97.927v.858h3.863a3.862,3.862,0,1,0-3.038-1.477A.853.853,0,0,1,121,97.927Zm5.151-3.434h.858v.858h-.858Zm-1.717,0h.858v.858h-.858Zm-1.717,0h.858v.858h-.858Z" transform="translate(1003.907 34.66)" fill="#0ec2cc"/>
    </g>
  </g>
</svg>
