<svg xmlns="http://www.w3.org/2000/svg" width="16" height="16" viewBox="0 0 16 16">
  <g id="myaccount_overview" transform="translate(-191 -150)">
    <path id="Path_7625" data-name="Path 7625" d="M0,0H16V16H0Z" transform="translate(191 150)" fill="none"/>
    <g id="my_account" transform="translate(192 151)">
      <path id="Path_6214" data-name="Path 6214" d="M7,0A7,7,0,1,1,0,7,7,7,0,0,1,7,0Z" fill="none" stroke="#009098" stroke-width="1"/>
      <path id="Path_6215" data-name="Path 6215" d="M113.626,0a2.835,2.835,0,1,0,2.835,2.835A2.842,2.842,0,0,0,113.626,0Z" transform="translate(-106.663 2.545)" fill="#0ec2cc"/>
      <path id="Path_6216" data-name="Path 6216" d="M33.917,249.9a2.641,2.641,0,0,0-.285-.52,3.523,3.523,0,0,0-2.439-1.535.522.522,0,0,0-.359.087,3.022,3.022,0,0,1-3.565,0,.464.464,0,0,0-.359-.087,3.5,3.5,0,0,0-2.439,1.535,3.046,3.046,0,0,0-.285.52.263.263,0,0,0,.012.235,4.939,4.939,0,0,0,.334.5,4.706,4.706,0,0,0,.569.644,7.441,7.441,0,0,0,.569.5,5.645,5.645,0,0,0,6.734,0,5.455,5.455,0,0,0,.569-.5,5.715,5.715,0,0,0,.569-.644,4.338,4.338,0,0,0,.334-.5A.211.211,0,0,0,33.917,249.9Z" transform="translate(-22.089 -239.423)" fill="#009098"/>
    </g>
  </g>
</svg>
