<svg xmlns="http://www.w3.org/2000/svg" width="16" height="16" viewBox="0 0 16 16">
  <g id="setup" transform="translate(-358 -83)">
    <rect id="Rectangle_1577" data-name="Rectangle 1577" width="16" height="16" transform="translate(358 83)" fill="none"/>
    <path id="Path_7623" data-name="Path 7623" d="M0,76.345V75.155a.612.612,0,0,1,.56-.63l1.749-.14a4.279,4.279,0,0,1,.35-.839L1.539,72.218a.637.637,0,0,1,0-.839l.839-.839a.637.637,0,0,1,.839,0l1.329,1.119c.28-.14.56-.21.839-.35l.14-1.749a.612.612,0,0,1,.63-.56H7.345a.552.552,0,0,1,.56.56l.21,1.749a8.206,8.206,0,0,1,.769.35l1.4-1.119a.637.637,0,0,1,.839,0l.769.839a.571.571,0,0,1,.07.839l-1.119,1.329c.14.28.21.56.35.839l1.749.14a.673.673,0,0,1,.56.63v1.189a.6.6,0,0,1-.56.56l-1.749.21c-.14.28-.21.56-.35.839l1.119,1.329a.578.578,0,0,1-.07.839l-.769.769a.578.578,0,0,1-.839.07L8.953,79.842a4.28,4.28,0,0,1-.839.35L7.9,81.94a.6.6,0,0,1-.56.56H6.155a.673.673,0,0,1-.63-.56l-.14-1.749a4.28,4.28,0,0,1-.839-.35L3.218,80.961a.571.571,0,0,1-.839-.07l-.839-.769a.637.637,0,0,1,0-.839l1.119-1.329a4.279,4.279,0,0,1-.35-.839L.56,76.9A.552.552,0,0,1,0,76.345Zm6.715-2.658a2.1,2.1,0,0,0-2.1,2.1,2.152,2.152,0,0,0,2.1,2.1,2.1,2.1,0,0,0,2.1-2.1A2.061,2.061,0,0,0,6.715,73.687Z" transform="translate(359.25 15.25)" fill="#009098" fill-rule="evenodd"/>
  </g>
</svg>
