<svg xmlns="http://www.w3.org/2000/svg" width="14" height="12.444" viewBox="0 0 14 12.444">
  <g id="add_lead_popup" transform="translate(-0.234 0)">
    <path id="contacts" d="M11.665,14.383v-.656a3.554,3.554,0,0,0,1.591-2.957c0-1.977,0-3.58-2.387-3.58s-2.387,1.6-2.387,3.58a3.554,3.554,0,0,0,1.591,2.957v.656c-2.7.221-4.774,1.547-4.774,3.15H16.439C16.439,15.929,14.364,14.6,11.665,14.383Z" transform="translate(-2.205 -5.088)" fill="#009098"/>
    <path id="contacts-2" data-name="contacts" d="M6.639,15.03a7.559,7.559,0,0,1,2.484-1,4.488,4.488,0,0,1-.5-.734,4.556,4.556,0,0,1-.578-2.187A7.064,7.064,0,0,1,8.422,8.2,2.591,2.591,0,0,1,10.4,6.719c-.21-.951-.77-1.576-2.26-1.576-2.387,0-2.387,1.6-2.387,3.58A3.554,3.554,0,0,0,7.345,11.68v.656c-2.7.221-4.774,1.547-4.774,3.15H6.04A5.1,5.1,0,0,1,6.639,15.03Z" transform="translate(-2.338 -5.143)" fill="#0ec2cc"/>
  </g>
</svg>
