<svg xmlns="http://www.w3.org/2000/svg" width="16" height="16" viewBox="0 0 16 16">
  <g id="TaskAdd" transform="translate(-176 -484)">
    <rect id="Rectangle_1470" data-name="Rectangle 1470" width="16" height="16" transform="translate(176 484)" fill="none"/>
    <g id="Group_15821" data-name="Group 15821" transform="translate(0.389 -0.356)">
      <path id="Subtraction_98" data-name="Subtraction 98" d="M7.729,13.336H.67A.652.652,0,0,1,0,12.707V.621A.649.649,0,0,1,.67,0H6.279V3.541a.651.651,0,0,0,.672.625h3.811V6.219c-.053,0-.1,0-.156,0a4.155,4.155,0,0,0-4.168,4.133,4.07,4.07,0,0,0,1.289,2.986ZM1.436,9.307v.809H6.1V9.309H1.436Zm0-2.061v.811H6.1V7.248H1.436Zm0-1.918v.8H6.1v-.8H1.436Z" transform="translate(176.65 485.521)" fill="#009098"/>
      <g id="Group_15820" data-name="Group 15820" transform="translate(183.819 485.521)">
        <path id="Icon_awesome-file-signature" data-name="Icon awesome-file-signature" d="M10.554,3.175a.6.6,0,0,0-.2-.44L7.615.182A.7.7,0,0,0,7.138,0H6.967V3.334h3.586Z" transform="translate(-6.967)" fill="#7fc7cb"/>
      </g>
      <g id="add" transform="translate(183.935 492.553)">
        <circle id="Ellipse_40" data-name="Ellipse 40" cx="3.319" cy="3.319" r="3.319" fill="#00b564"/>
        <path id="Path_6487" data-name="Path 6487" d="M315-5325.37v3.073" transform="translate(-311.553 5327.28)" fill="none" stroke="#fff" stroke-linecap="round" stroke-width="0.6"/>
        <path id="Path_6488" data-name="Path 6488" d="M0,0V3.073" transform="translate(4.983 3.447) rotate(90)" fill="none" stroke="#fff" stroke-linecap="round" stroke-width="0.6"/>
      </g>
    </g>
  </g>
</svg>
