<svg xmlns="http://www.w3.org/2000/svg" width="16" height="16" viewBox="0 0 16 16">
  <g id="Job" transform="translate(-407 -185)">
    <rect id="Rectangle_1557" data-name="Rectangle 1557" width="16" height="16" transform="translate(407 185)" fill="none"/>
    <path id="Path_7561" data-name="Path 7561" d="M18.478,31.948H25.1a.273.273,0,0,0,.273-.272V25.954a.523.523,0,0,0-.236-.408l-5.85-3.372a.526.526,0,0,0-.473,0l-5.851,3.372a.523.523,0,0,0-.236.408v5.722a.273.273,0,0,0,.273.272h2.225a.273.273,0,0,0,.273-.272V27.17a.273.273,0,0,1,.273-.272h2.164a.273.273,0,0,1,.273.272v4.505A.273.273,0,0,0,18.478,31.948ZM20.1,28.365a.273.273,0,0,1,.273-.272h2.864a.273.273,0,0,1,.273.272v1.868a.273.273,0,0,1-.273.272H20.374a.273.273,0,0,1-.273-.272Z" transform="translate(395.953 166.283)" fill="#009098"/>
    <g id="noun_House_2597048" transform="translate(400.794 173.393)">
      <g id="Group_15615" data-name="Group 15615" transform="translate(6.778 13.384)">
        <path id="Path_7560" data-name="Path 7560" d="M21.581,18.2a.418.418,0,0,0-.148-.564L18,15.615l.392.231V14.432a.274.274,0,0,0-.272-.277h-.883a.274.274,0,0,0-.272.277v.573l-2.757-1.622L6.981,17.636a.417.417,0,0,0-.148.564.4.4,0,0,0,.554.151l6.821-4.013,6.82,4.013A.4.4,0,0,0,21.581,18.2Z" transform="translate(-6.778 -13.384)" fill="#7fc7cb"/>
        <rect id="Rectangle_1556" data-name="Rectangle 1556" width="14.857" height="0.558" transform="translate(0 11.889)" fill="#0ec2cc"/>
      </g>
    </g>
  </g>
</svg>
