<svg xmlns="http://www.w3.org/2000/svg" width="16" height="16" viewBox="0 0 16 16">
  <g id="create" transform="translate(-115 -17)">
    <rect id="Rectangle_1318" data-name="Rectangle 1318" width="16" height="16" transform="translate(115 17)" fill="none"/>
    <g id="add-phonenum" transform="translate(-129 -562)">
      <path id="Subtraction_42" data-name="Subtraction 42" d="M20855,20152a7,7,0,1,1,7-7A7.008,7.008,0,0,1,20855,20152Zm-3.617-7.639a.639.639,0,0,0,0,1.277h2.979v2.973a.639.639,0,0,0,1.277,0v-2.973h2.975a.639.639,0,0,0,0-1.277h-2.975v-2.975a.639.639,0,0,0-1.277,0v2.975Z" transform="translate(-20603 -19558)" fill="#009098"/>
    </g>
  </g>
</svg>
