<svg xmlns="http://www.w3.org/2000/svg" width="16.001" height="16" viewBox="0 0 16.001 16">
  <g id="add_lead_contact" transform="translate(-159.999 -17)">
    <rect id="Rectangle_1319" data-name="Rectangle 1319" width="16" height="16" transform="translate(159.999 17)" fill="none"/>
    <g id="add_lead_popup" transform="translate(160.768 18.484)">
      <path id="Subtraction_29" data-name="Subtraction 29" d="M6.574,9.566H0A2.415,2.415,0,0,1,1.27,7.629a6.83,6.83,0,0,1,3.141-.98V6.043A3.3,3.3,0,0,1,2.939,3.311c0-1.85,0-3.311,2.207-3.311S7.352,1.461,7.352,3.311A3.3,3.3,0,0,1,5.879,6.043v.605c.219.018.416.043.615.072a3.223,3.223,0,0,0-.289,1.34,3.3,3.3,0,0,0,.367,1.5Z" transform="translate(3.259 2.208)" fill="#009098"/>
      <path id="contacts" d="M6.333,14.286a6.99,6.99,0,0,1,2.3-.924,4.15,4.15,0,0,1-.465-.678,4.213,4.213,0,0,1-.534-2.022,6.532,6.532,0,0,1,.352-2.687A2.4,2.4,0,0,1,9.812,6.6c-.194-.879-.712-1.457-2.09-1.457-2.207,0-2.207,1.482-2.207,3.311a3.286,3.286,0,0,0,1.471,2.734v.607c-2.5.2-4.414,1.43-4.414,2.913H5.779A4.713,4.713,0,0,1,6.333,14.286Z" transform="translate(-2.259 -5.143)" fill="#0ec2cc"/>
      <path id="Icon_awesome-star" data-name="Icon awesome-star" d="M5.451.24l.884,1.792,1.978.288a.433.433,0,0,1,.24.739L7.121,4.454l.338,1.97a.433.433,0,0,1-.628.456L5.062,5.95l-1.769.93a.433.433,0,0,1-.628-.456L3,4.454,1.573,3.06a.433.433,0,0,1,.24-.739L3.79,2.033,4.674.24A.434.434,0,0,1,5.451.24Z" transform="translate(-2.209 6.1)" fill="#dedede"/>
      <g id="Group_14721" data-name="Group 14721" transform="translate(10.128 7.739)">
        <path id="Icon_ionic-ios-add-circle" data-name="Icon ionic-ios-add-circle" d="M5.927,3.375A2.552,2.552,0,1,1,3.375,5.927,2.552,2.552,0,0,1,5.927,3.375ZM4.817,6.124h.914v.914a.2.2,0,0,0,.393,0V6.124h.914a.2.2,0,1,0,0-.393H6.124V4.817a.2.2,0,0,0-.393,0v.914H4.817a.2.2,0,1,0,0,.393Z" transform="translate(-3.375 -3.375)" fill="#00b564"/>
      </g>
    </g>
  </g>
</svg>
