<svg xmlns="http://www.w3.org/2000/svg" width="16" height="16" viewBox="0 0 16 16">
  <g id="quotes" transform="translate(-176 -484)">
    <rect id="Rectangle_1470" data-name="Rectangle 1470" width="16" height="16" transform="translate(176 484)" fill="none"/>
    <g id="Group_15687" data-name="Group 15687" transform="translate(0.324 0.569)">
      <path id="Icon_awesome-file-signature" data-name="Icon awesome-file-signature" d="M7.351,8.779v1.747H9.112l4.127-4.119L11.506,4.69,7.351,8.779Zm7.161-4.545L13.7,3.427a.654.654,0,0,0-.919,0l-.7.689,1.733,1.718.7-.689A.64.64,0,0,0,14.512,4.234Z" transform="translate(176.65 484.951)" fill="#0ec2cc"/>
      <path id="Icon_awesome-file-signature-2" data-name="Icon awesome-file-signature" d="M10.451,3.084a.585.585,0,0,0-.191-.428L7.6.177A.679.679,0,0,0,7.133,0H6.967V3.239h3.484Z" transform="translate(176 484.951)" fill="#7fc7cb"/>
      <path id="Subtraction_50" data-name="Subtraction 50" d="M20805.8,19403.957h-9.148a.635.635,0,0,1-.652-.611v-11.738a.631.631,0,0,1,.652-.605h5.447v3.441a.631.631,0,0,0,.652.605h3.7v1.176l-3.035,2.8-.449.418v2.893h3.484v1.012A.636.636,0,0,1,20805.8,19403.957Zm-8.406-3.912v.785h4.533v-.783h-4.533Zm0-2v.785h4.533v-.783h-4.533Zm0-1.865v.781h4.533v-.779h-4.533Z" transform="translate(-20620 -18906.047)" fill="#009098"/>
    </g>
  </g>
</svg>
