<svg xmlns="http://www.w3.org/2000/svg" width="16" height="16" viewBox="0 0 16 16">
  <g id="SalesPipeline_overview" transform="translate(-47 -341)">
    <path id="Path_7499" data-name="Path 7499" d="M0,0H16V16H0Z" transform="translate(47 341)" fill="none"/>
    <g id="noun_Handshake_3583248" transform="translate(43.352 322.376)">
      <path id="Path_7517" data-name="Path 7517" d="M6.92,22.581a1.079,1.079,0,0,0-.661-.52A7.622,7.622,0,0,0,4,21.821V27.67h.915A1.086,1.086,0,0,0,5.959,26.9L7.01,23.429A1.092,1.092,0,0,0,6.92,22.581Z" transform="translate(0 0)" fill="#0ec2cc"/>
      <path id="Path_7518" data-name="Path 7518" d="M27.926,36.445a.553.553,0,0,0-.014-.8l-3.858-3.538a2.7,2.7,0,0,0-1.321.768.123.123,0,0,1-.03.027c-.968.628-1.515.14-1.538.118-.621-.562-.053-1.494-.029-1.534a5.78,5.78,0,0,1,.891-1.129H19.4a1.414,1.414,0,0,1-.057.342L18.32,34.088a.1.1,0,0,1,.029.022,32.92,32.92,0,0,0,5.014,4.419.458.458,0,0,0,.594-.049.453.453,0,0,0,.135-.319.459.459,0,0,0-.135-.327l-.594-.6-.675-.675a.159.159,0,0,1,.224-.226l.676.675.591.593.306.3a.56.56,0,0,0,.8-.787l-1.168-1.207h0l-.221-.228a.159.159,0,1,1,.229-.221l1.7,1.752a.582.582,0,1,0,.823-.824L25.6,35.384h0l-.686-.663a.159.159,0,0,1,.224-.226l2.015,1.953A.549.549,0,0,0,27.926,36.445Z" transform="translate(-12.034 -7.182)" fill="#009098"/>
      <path id="Path_7519" data-name="Path 7519" d="M44.207,31.079l-1.236-3.353a1.408,1.408,0,0,1-.086-.479.136.136,0,0,1-.035,0l-3.263-1.306a.958.958,0,0,0-.592-.042A4.108,4.108,0,0,0,36.6,27.889c0,.008-.455.747-.029,1.134.014.013.4.33,1.137-.142a2.867,2.867,0,0,1,1.585-.864.16.16,0,0,1,.121.042l3.924,3.591c.018.016.029.034.045.049A1.261,1.261,0,0,0,44.207,31.079Z" transform="translate(-27.238 -3.409)" fill="#009098"/>
      <path id="Path_7520" data-name="Path 7520" d="M81.445,32.184h.971V26.337c-.1,0-.233-.008-.4-.008a9.085,9.085,0,0,0-2.119.236,1.055,1.055,0,0,0-.69.54,1.094,1.094,0,0,0-.061.894L80.42,31.47A1.092,1.092,0,0,0,81.445,32.184Z" transform="translate(-63.118 -3.794)" fill="#0ec2cc"/>
    </g>
  </g>
</svg>
