<svg xmlns="http://www.w3.org/2000/svg" width="16" height="16" viewBox="0 0 16 16">
  <g id="customer_contact" transform="translate(-160 -17)">
    <rect id="Rectangle_1319" data-name="Rectangle 1319" width="16" height="16" transform="translate(160 17)" fill="none"/>
    <g id="add_lead_popup" transform="translate(161.605 18.484)">
      <path id="contacts" d="M11.186,13.841v-.607A3.286,3.286,0,0,0,12.657,10.5c0-1.828,0-3.311-2.207-3.311S8.243,8.672,8.243,10.5a3.286,3.286,0,0,0,1.471,2.734v.607c-2.5.2-4.414,1.43-4.414,2.913H15.6C15.6,15.271,13.682,14.045,11.186,13.841Z" transform="translate(-2.043 -4.984)" fill="#009098"/>
      <path id="contacts-2" data-name="contacts" d="M6.333,14.286a6.99,6.99,0,0,1,2.3-.924,4.15,4.15,0,0,1-.465-.678,4.213,4.213,0,0,1-.534-2.022,6.532,6.532,0,0,1,.352-2.687A2.4,2.4,0,0,1,9.812,6.6c-.194-.879-.712-1.457-2.09-1.457-2.207,0-2.207,1.482-2.207,3.311a3.286,3.286,0,0,0,1.471,2.734v.607c-2.5.2-4.414,1.43-4.414,2.913H5.779A4.712,4.712,0,0,1,6.333,14.286Z" transform="translate(-2.259 -5.143)" fill="#0ec2cc"/>
      <path id="Icon_awesome-star" data-name="Icon awesome-star" d="M5.451.24l.884,1.792,1.978.288a.433.433,0,0,1,.24.739L7.121,4.454l.338,1.97a.433.433,0,0,1-.628.456L5.062,5.95l-1.769.93a.433.433,0,0,1-.628-.456L3,4.454,1.573,3.06a.433.433,0,0,1,.24-.739L3.79,2.033,4.674.24A.434.434,0,0,1,5.451.24Z" transform="translate(-2.209 6.1)" fill="#ffdb45"/>
    </g>
  </g>
</svg>
