<svg xmlns="http://www.w3.org/2000/svg" width="16" height="16" viewBox="0 0 16 16">
  <g id="Orders" transform="translate(-67 -341)">
    <path id="Path_7499" data-name="Path 7499" d="M0,0H16V16H0Z" transform="translate(67 341)" fill="none"/>
    <g id="Group_15675" data-name="Group 15675" transform="translate(68 343.021)">
      <path id="Subtraction_41" data-name="Subtraction 41" d="M10.776,11.352h-8.6l2.059-.685a.52.52,0,0,0,.3-.26.51.51,0,0,0,.023-.393L2.573,4.076a.525.525,0,0,0-.659-.326L1.1,4.02a.516.516,0,0,0-.445-.254.51.51,0,0,0-.161.026L0,3.957c0-.016,0-.163,0-1.473A.12.12,0,0,1,.031,2.4a.058.058,0,0,0,0-.01A.127.127,0,0,1,.063,2.34L1.177,1.2a.11.11,0,0,1,.042-.047L2.2.151V.141A.084.084,0,0,0,2.215.13S2.224.121,2.23.117L2.24.107A.64.64,0,0,1,2.3.063.323.323,0,0,1,2.495,0H8.867a.321.321,0,0,1,.191.063.417.417,0,0,1,.072.06L9.137.13l.009.01a.007.007,0,0,0,.007,0l2.017,2.2a.084.084,0,0,1,.031.051.116.116,0,0,1,.042.094v8.078a1.182,1.182,0,0,1-.115.529A.418.418,0,0,1,10.776,11.352ZM5.637,4.086h0a.294.294,0,0,1,.2.063.357.357,0,0,1,.091.109.093.093,0,0,1,.026.035c.005,0,.005,0,.007.007l.007.005c.005,0,.005,0,.025,0s.035,0,.056-.033a.137.137,0,0,0,.022-.029l.007-.005,0,0a.4.4,0,0,1,.266-.172c.021,0,.039-.007.06-.007a.634.634,0,0,1,.329.12V2.613H4.505V4.169a.538.538,0,0,1,.3-.1h.039a.462.462,0,0,1,.3.165l.005.005.007.008.007.005c.031.031.048.051.068.057h.039c.034,0,.039-.007.066-.035.007-.008.009-.013.016-.02l.007-.007A.359.359,0,0,1,5.637,4.086ZM6.643,1.395h0l.315.954h3.867L9.94,1.391H9.93a.112.112,0,0,1-.035,0ZM5.266.26h0L4.531,2.349H6.684L6,.26ZM1.355,1.395h0l-.936.954H4.253l.331-.954ZM6.482.9h0l.083.245a.048.048,0,0,1,.025-.01H9.7L9.484.9h-3ZM1.839.9h0l-.232.234H4.646a.048.048,0,0,1,.026.01L4.76.9ZM6.273.26h0L6.4.643c.005,0,.005-.005.01-.005H9.246L8.965.326,8.941.3A.068.068,0,0,1,8.927.292L8.918.284A.035.035,0,0,0,8.909.276L8.9.271C8.9.263,8.893.26,8.867.26H6.273ZM2.495.26c-.03,0-.036.005-.046.016S2.424.294,2.4.326L2.09.638H4.832c.007,0,.012,0,.016.005L4.979.26H2.495Z" transform="translate(2.758 0)" fill="#009098"/>
      <path id="Path_7523" data-name="Path 7523" d="M14.606,972a.22.22,0,0,0-.049.011l-.8.272.005.011.071.212.005.011.713-.24.022-.005a.131.131,0,0,1,.147.087l1.9,5.7a.131.131,0,0,1-.087.163L12.13,979.7a.131.131,0,0,1-.169-.082l-1.9-5.7a.131.131,0,0,1,.087-.163l.707-.25-.071-.212-.005-.016-.795.272a.249.249,0,0,0-.163.321l1.981,5.937a.251.251,0,0,0,.327.158l4.577-1.529a.249.249,0,0,0,.163-.321l-1.981-5.937a.258.258,0,0,0-.278-.174Zm-.093.566-.631.212a.388.388,0,0,1-.005.049.3.3,0,0,1-.022.06.348.348,0,0,1-.114.131l-.005.005c-.007.005-.014.012-.022.016a.348.348,0,0,1-.065.027l-2.307.773a.378.378,0,0,1-.332-.055.355.355,0,0,1-.033-.032l-.626.207,1.818,5.453,4.163-1.388-1.818-5.458Zm-.185,1.1h.011a.131.131,0,0,1,.049.256l-2.226.746a.132.132,0,0,1-.082-.25l2.226-.74.022-.011Zm-2.634.55h.011a.131.131,0,0,1,.12.2l-.348.626a.131.131,0,0,1-.185.049l-.256-.163a.131.131,0,1,1,.141-.218l.136.087.283-.512a.13.13,0,0,1,.087-.065l.011-.005Zm2.96.4h.011a.132.132,0,0,1,.038.261l-1.641.546-.584.194a.131.131,0,1,1-.082-.245l2.226-.745.022-.005.011-.005ZM12,975.171h.016a.131.131,0,0,1,.125.2l-.348.631a.13.13,0,0,1-.185.043l-.256-.158a.132.132,0,0,1,.141-.223l.141.087.278-.506A.131.131,0,0,1,12,975.171Zm2.971.392h.016a.132.132,0,1,1,.033.261l-2.22.746a.133.133,0,0,1-.087-.25l2.226-.745.022-.006.011-.005Zm-2.639.555h.011a.131.131,0,0,1,.12.2l-.354.626a.131.131,0,0,1-.185.049l-.256-.163a.132.132,0,1,1,.141-.223l.141.087.283-.506a.131.131,0,0,1,.087-.065l.011-.005Zm2.944.4H15.3a.131.131,0,0,1,.044.256l-2.226.746a.132.132,0,0,1-.082-.25l2.22-.74.011-.005.011-.005Zm.332.947h.005a.132.132,0,1,1,.044.261l-2.226.74a.131.131,0,1,1-.082-.245l2.226-.745.022-.005.011-.005Z" transform="translate(-9.803 -968.02)" fill="#0ec2cc"/>
      <path id="Path_7533" data-name="Path 7533" d="M12.075,972a.339.339,0,0,0-.065.016.35.35,0,0,0-.234.386.131.131,0,0,1-.087.141l-.55.185a.257.257,0,0,0-.169.31l.005.011s0,0,0,.005l.011.016.044.142.071.212.033.1v.005h.005a.14.14,0,0,1,.005.016.13.13,0,0,0,.016.022l.005.005c0,.005.006.013.011.016l.016.005a.094.094,0,0,0,.033.005.1.1,0,0,0,.033-.005l2.3-.767a.084.084,0,0,0,.054-.044.092.092,0,0,0,.011-.033s0,0,0-.005a.126.126,0,0,0-.005-.044l-.033-.109-.071-.212-.049-.136a.131.131,0,0,1-.005-.022.255.255,0,0,0-.327-.163l-.55.185a.131.131,0,0,1-.158-.06.349.349,0,0,0-.294-.185.426.426,0,0,0-.06,0Z" transform="translate(-9.803 -968.02)" fill="#7fc7cb"/>
    </g>
  </g>
</svg>
