<svg xmlns="http://www.w3.org/2000/svg" width="16" height="16" viewBox="0 0 16 16">
  <g id="add_serviceorder" transform="translate(-67 -341)">
    <path id="Path_7499" data-name="Path 7499" d="M0,0H16V16H0Z" transform="translate(67 341)" fill="none"/>
    <g id="Group_15685" data-name="Group 15685" transform="translate(-0.813 0.725)">
      <path id="Subtraction_49" data-name="Subtraction 49" d="M1.96,10.5a.218.218,0,0,1-.208-.15L.011,5.129a.208.208,0,0,1,.014-.168.231.231,0,0,1,.13-.113l.7-.236,0,.014.063.185L.3,5.031a.106.106,0,0,0-.069.058.106.106,0,0,0-.006.09l1.671,5a.084.084,0,0,0,.058.069.109.109,0,0,0,.052.009.133.133,0,0,0,.04,0l.494-.162c.055.067.1.127.154.176l-.656.216A.2.2,0,0,1,1.96,10.5ZM2.078,10v0L.483,5.216l.548-.185c.006.01.012.013.014.013s.012.014.013.014a.3.3,0,0,0,.19.063H1.27a.29.29,0,0,0,.082-.014l2.026-.676a.126.126,0,0,0,.046-.018l.011-.005,0,0,.009,0,.009,0,.005-.005a.429.429,0,0,0,.1-.113.092.092,0,0,0,.009-.031l.005-.014V4.218a.069.069,0,0,0,.009-.041l.557-.19.168.513a3.5,3.5,0,0,0-1.459.838L2,5.615a.124.124,0,0,0-.069.058.115.115,0,0,0,0,.086.117.117,0,0,0,.113.083.064.064,0,0,0,.031-.005l.453-.15a3.473,3.473,0,0,0-.751,1.859l-.014-.01a.114.114,0,0,0-.06-.017.133.133,0,0,0-.1.053.127.127,0,0,0-.017.091.11.11,0,0,0,.053.068l.118.077V7.88A3.485,3.485,0,0,0,2.39,9.9l-.312.1ZM1.424,6.688a.117.117,0,0,0-.1.049.124.124,0,0,0-.014.086.12.12,0,0,0,.049.077l.224.137a.127.127,0,0,0,.067.023h.01s0,0,.005,0a.01.01,0,0,1,.009,0A.116.116,0,0,0,1.747,7l.309-.552a.114.114,0,0,0-.005-.122.125.125,0,0,0-.1-.055H1.932a.121.121,0,0,0-.076.063l-.244.444L1.484,6.7A.142.142,0,0,0,1.424,6.688ZM1.135,5.85a.229.229,0,0,0-.049,0,.126.126,0,0,0-.063.109.1.1,0,0,0,.063.1l.223.146a.125.125,0,0,0,.063.018A.045.045,0,0,0,1.4,6.221a.1.1,0,0,0,.073-.055l.308-.552a.134.134,0,0,0,0-.118.121.121,0,0,0-.095-.058H1.661s0,0,0,0l-.005.005a.094.094,0,0,0-.077.055l-.249.448-.118-.077A.111.111,0,0,0,1.135,5.85Zm9.592,4.116H8.1A3.469,3.469,0,0,0,8.786,7.88,3.516,3.516,0,0,0,5.273,4.368a2.743,2.743,0,0,0-.323.014l-.268-.806a.455.455,0,0,0-.434-.309.461.461,0,0,0-.145.022l-.718.241A.449.449,0,0,0,3,3.3a.49.49,0,0,0-.14.019l-.431.148V3.462c0-.168,0-.636,0-1.282A.112.112,0,0,1,2.448,2.1c.005,0,.005,0,.005-.005a.041.041,0,0,1,.005-.013.021.021,0,0,1,0-.011.02.02,0,0,1,.005-.012s0,0,0-.005l.005,0,.979-1a.09.09,0,0,1,.036-.041L4.357.13V.122h0l0,0,0-.006A.038.038,0,0,1,4.376.1l0-.005L4.388.09A.113.113,0,0,1,4.412.072L4.42.067,4.437.055A.279.279,0,0,1,4.616,0h5.6a.266.266,0,0,1,.168.055A.045.045,0,0,1,10.4.072l0,0,0,0s0,0,.006.008l.009.005A.084.084,0,0,0,10.445.1l0,.009.011.009,0,0h0l0,0,1.766,1.925a.06.06,0,0,1,.026.038l0,.006a.1.1,0,0,1,.037.083V5.055A3.128,3.128,0,0,0,10.057,8.04a3.087,3.087,0,0,0,.667,1.925ZM7.375,3.585h0a.244.244,0,0,1,.168.055.189.189,0,0,1,.076.094l.01.011.023.023,0,.009,0,0s0,0,.022,0,.034-.005.052-.037l0,0,0-.011.009-.009.006,0V3.72l.006-.008a.315.315,0,0,1,.228-.142.123.123,0,0,1,.054-.009.549.549,0,0,1,.29.108V2.293H6.377V3.661a.485.485,0,0,1,.268-.1.061.061,0,0,1,.038.009.367.367,0,0,1,.253.136l0,.005h.005l0,.008.005,0,.005,0,0,.006a.028.028,0,0,0,.012.009l.008.009a.063.063,0,0,0,.041.025c0,.009.009.009.017.009h.014c.03,0,.033-.008.049-.031l.005-.005a.029.029,0,0,0,.016-.014l.005-.009A.312.312,0,0,1,7.375,3.585Zm.883-2.362h0l.275.839h3.391l-.775-.842h0a.109.109,0,0,1-.032,0Zm-1.207-1h0L6.4,2.061H8.3L7.7.226Zm-3.435,1h0l-.823.839H6.157l.295-.839Zm4.5-.439h0L8.188,1A.037.037,0,0,1,8.209.993h2.728l-.189-.21H8.119Zm-4.083,0h0l-.205.21H6.5c.005,0,.019,0,.025.009L6.605.783Zm3.9-.557h0l.108.337s0-.005.011-.005h2.492L10.3.284,10.281.267h0l-.009,0L10.262.257,10.253.249l0-.009L10.24.235a.046.046,0,0,0-.028-.009H7.934ZM4.57.24s-.012.006-.023.023l0,0L4.529.284,4.258.557H6.669a.017.017,0,0,1,.014.005L6.8.226H4.616c-.024,0-.038,0-.041.014Zm-3.3,4.655H1.234s0,0-.006,0h-.02l0-.009c0-.008,0-.011-.005-.014l0-.005s-.005,0-.009-.006l0-.005,0-.01c0-.005-.005-.005-.005-.009l-.005,0h0l0,0L1.14,4.74l-.06-.182-.04-.127c0-.009-.01-.014-.01-.014V4.409a.008.008,0,0,1,0,0,.237.237,0,0,1,.148-.276l.481-.162a.106.106,0,0,0,.076-.118.31.31,0,0,1,.2-.34L1.951,3.5l.005,0,.009,0A.051.051,0,0,1,2,3.493h.011l.009,0h.023s0,0,0,0H2.05a.3.3,0,0,1,.259.164.118.118,0,0,0,.1.055.167.167,0,0,0,.031-.005l.009,0,.482-.16A.187.187,0,0,1,3,3.53a.227.227,0,0,1,.213.154c0,.005,0,.014.005.019l.044.122.058.182.032.1a.1.1,0,0,1,.005.037v.005a.089.089,0,0,1-.01.03.125.125,0,0,1-.042.037l-.009,0L1.281,4.89A.018.018,0,0,1,1.267,4.895Zm3.262-.45v0l-.213-.633a.1.1,0,0,0-.108-.077H4.172l-.626.218,0-.014-.063-.185,0-.014.7-.231.01-.005h.005a.06.06,0,0,1,.031-.008h.027a.229.229,0,0,1,.213.155l.254.761-.187.034Z" transform="translate(68 343.025)" fill="#009098"/>
      <path id="Subtraction_46" data-name="Subtraction 46" d="M2.631,5.267A2.634,2.634,0,1,1,5.267,2.63,2.637,2.637,0,0,1,2.631,5.267ZM1.353,3.155v0a1.254,1.254,0,0,0,.11.5,1.048,1.048,0,0,0,.285.347,1.1,1.1,0,0,0,.411.2,1.8,1.8,0,0,0,.5.069A1.9,1.9,0,0,0,3.12,4.22a1.189,1.189,0,0,0,.4-.176.9.9,0,0,0,.281-.3.856.856,0,0,0,.1-.448.929.929,0,0,0-.032-.25.819.819,0,0,0-.116-.231.888.888,0,0,0-.19-.19.9.9,0,0,0-.268-.13l-.07-.017c-.043-.012-.088-.024-.134-.038l-.174-.044-.086-.025L2.8,2.359c-.052-.015-.1-.027-.144-.039l-.122-.033c-.052-.015-.09-.024-.113-.029l-.016,0H2.4a.641.641,0,0,1-.267-.148.338.338,0,0,1-.105-.257.364.364,0,0,1,.055-.2.418.418,0,0,1,.136-.122A.687.687,0,0,1,2.4,1.458a1.048,1.048,0,0,1,.2-.017.854.854,0,0,1,.47.122.524.524,0,0,1,.2.43h.549a.941.941,0,0,0-.1-.436.927.927,0,0,0-.261-.312,1.066,1.066,0,0,0-.381-.19A1.559,1.559,0,0,0,2.623.991a1.665,1.665,0,0,0-.417.055,1.2,1.2,0,0,0-.372.168.9.9,0,0,0-.261.29.812.812,0,0,0-.095.407.875.875,0,0,0,.031.245.612.612,0,0,0,.113.221.635.635,0,0,0,.212.19,1.066,1.066,0,0,0,.337.141c.216.061.4.107.542.141l0,0a3.4,3.4,0,0,1,.386.12.406.406,0,0,1,.176.122.35.35,0,0,1,.081.262.478.478,0,0,1-.03.176.443.443,0,0,1-.118.15.589.589,0,0,1-.2.11,1.012,1.012,0,0,1-.307.041,1.326,1.326,0,0,1-.309-.038.877.877,0,0,1-.254-.116.61.61,0,0,1-.172-.21A.719.719,0,0,1,1.9,3.158H1.353Z" transform="translate(70.635 348.256)" fill="#900"/>
      <g id="Group_15684" data-name="Group 15684" transform="translate(78.716 348.613)">
        <path id="Icon_ionic-ios-add-circle" data-name="Icon ionic-ios-add-circle" d="M5.83,3.375A2.455,2.455,0,1,1,3.375,5.83,2.454,2.454,0,0,1,5.83,3.375ZM4.762,6.019h.879V6.9a.189.189,0,0,0,.378,0V6.019H6.9a.189.189,0,1,0,0-.378H6.019V4.762a.189.189,0,0,0-.378,0v.879H4.762a.189.189,0,0,0,0,.378Z" transform="translate(-3.375 -3.375)" fill="#00b564"/>
      </g>
    </g>
  </g>
</svg>
