<svg xmlns="http://www.w3.org/2000/svg" width="16" height="16" viewBox="0 0 16 16">
  <g id="add_employee" transform="translate(-250 -17)">
    <rect id="Rectangle_1323" data-name="Rectangle 1323" width="16" height="16" transform="translate(250 17)" fill="none"/>
    <g id="add_employee_popup" transform="translate(-36.465 -71.658)">
      <path id="Subtraction_39" data-name="Subtraction 39" d="M20871.492,19725.6h0a1.026,1.026,0,0,1-1.027-1.021v-.891a2.869,2.869,0,0,1,2.74-2.861l.572,2.289a2.859,2.859,0,0,0-.965,2.139v.23Zm3.293-3.064,0,0,.121-.523-.682-1.2h1.359a2.84,2.84,0,0,0,.463.4l-.453.793-.064.385a2.83,2.83,0,0,0-.744.139Zm.334-2.41h0a2.733,2.733,0,1,1,2.611-3.9c-.043,0-.088,0-.131,0a2.742,2.742,0,0,0-2.48,3.9Z" transform="translate(-20584 -19625.553)" fill="#0ec2cc"/>
      <path id="Subtraction_26" data-name="Subtraction 26" d="M6.229,10.945H1.023A1.026,1.026,0,0,1,0,9.92V9.027A2.874,2.874,0,0,1,2.736,6.168l1.025,4.094.682-2.908-.682-1.2H5.809l-.682,1.2.682,2.908L6.834,6.168a2.917,2.917,0,0,1,1.41.449A3.646,3.646,0,0,0,6.09,9.941a3.711,3.711,0,0,0,.137,1ZM4.783,5.477A2.737,2.737,0,1,1,7.521,2.738,2.742,2.742,0,0,1,4.783,5.477Z" transform="translate(289.882 91.37)" fill="#009098"/>
      <g id="Group_15562" data-name="Group 15562" transform="translate(296.718 98.462)">
        <path id="Icon_ionic-ios-add-circle" data-name="Icon ionic-ios-add-circle" d="M6.248,3.375A2.873,2.873,0,1,1,3.375,6.248,2.873,2.873,0,0,1,6.248,3.375ZM5,6.469H6.027V7.5a.221.221,0,0,0,.442,0V6.469H7.5a.221.221,0,1,0,0-.442H6.469V5a.221.221,0,0,0-.442,0V6.027H5a.221.221,0,0,0,0,.442Z" transform="translate(-3.375 -3.375)" fill="#00b564"/>
      </g>
    </g>
  </g>
</svg>
