<svg xmlns="http://www.w3.org/2000/svg" width="16" height="16" viewBox="0 0 16 16">
  <g id="add_company" transform="translate(-205 -17)">
    <rect id="Rectangle_1321" data-name="Rectangle 1321" width="16" height="16" transform="translate(205 17)" fill="none"/>
    <g id="add_company_popup" transform="translate(198.729 13.814)">
      <path id="Subtraction_40" data-name="Subtraction 40" d="M20622.889,19692.563h-3.023a.276.276,0,0,1-.273-.275v-1.371a.277.277,0,0,0-.275-.279h-1.1a.277.277,0,0,0-.275.279v1.371a.276.276,0,0,1-.273.275h-3.023a.827.827,0,0,1-.824-.824v-10.312a.623.623,0,0,1,.072-1.242h9.754a.623.623,0,0,1,.068,1.242v5.908a3.174,3.174,0,0,0-.678,5.215A.868.868,0,0,1,20622.889,19692.563Zm-1.65-4.127a.278.278,0,0,0-.275.275v.553a.278.278,0,0,0,.275.275h.553a.278.278,0,0,0,.275-.275v-.553a.278.278,0,0,0-.275-.275Zm-2.744,0a.277.277,0,0,0-.279.275v.553a.277.277,0,0,0,.279.275h.549a.275.275,0,0,0,.273-.275v-.553a.275.275,0,0,0-.273-.275Zm-2.75,0a.275.275,0,0,0-.273.275v.553a.275.275,0,0,0,.273.275h.549a.278.278,0,0,0,.275-.275v-.553a.278.278,0,0,0-.275-.275Zm5.494-2.2a.275.275,0,0,0-.275.273v.555a.275.275,0,0,0,.275.273h.553a.275.275,0,0,0,.275-.273v-.555a.275.275,0,0,0-.275-.273Zm-2.744,0a.277.277,0,0,0-.279.273v.555a.277.277,0,0,0,.279.273h.549a.277.277,0,0,0,.273-.273v-.555a.277.277,0,0,0-.273-.273Zm-2.75,0a.277.277,0,0,0-.273.273v.555a.277.277,0,0,0,.273.273h.549a.275.275,0,0,0,.275-.273v-.555a.275.275,0,0,0-.275-.273Zm5.494-2.2a.277.277,0,0,0-.275.279v.549a.278.278,0,0,0,.275.275h.553a.278.278,0,0,0,.275-.275v-.549a.277.277,0,0,0-.275-.279Zm-2.744,0a.279.279,0,0,0-.279.279v.549a.277.277,0,0,0,.279.275h.549a.275.275,0,0,0,.273-.275v-.549a.277.277,0,0,0-.273-.279Zm-2.75,0a.277.277,0,0,0-.273.279v.549a.275.275,0,0,0,.273.275h.549a.278.278,0,0,0,.275-.275v-.549a.277.277,0,0,0-.275-.279Zm5.494-2.2a.275.275,0,0,0-.275.273v.555a.275.275,0,0,0,.275.273h.553a.275.275,0,0,0,.275-.273v-.555a.275.275,0,0,0-.275-.273Zm-2.744,0a.277.277,0,0,0-.279.273v.555a.277.277,0,0,0,.279.273h.549a.277.277,0,0,0,.273-.273v-.555a.277.277,0,0,0-.273-.273Zm-2.75,0a.277.277,0,0,0-.273.273v.555a.277.277,0,0,0,.273.273h.549a.275.275,0,0,0,.275-.273v-.555a.275.275,0,0,0-.275-.273Z" transform="translate(-20606.521 -19675.068)" fill="#009098"/>
      <g id="Group_15561" data-name="Group 15561" transform="translate(6.75 4.094)">
        <path id="Path_6692" data-name="Path 6692" d="M9.6,4.094h7.292a.556.556,0,0,0,.6-.5h0a.556.556,0,0,0-.6-.5H9.6a.556.556,0,0,0-.6.5H9A.556.556,0,0,0,9.6,4.094Z" transform="translate(-7.747 -3.385)" fill="#0ec2cc"/>
      </g>
      <g id="Group_14724" data-name="Group 14724" transform="translate(15.441 11.927)">
        <path id="Icon_ionic-ios-add-circle" data-name="Icon ionic-ios-add-circle" d="M5.884,3.375A2.509,2.509,0,1,1,3.375,5.884,2.509,2.509,0,0,1,5.884,3.375Zm-1.092,2.7h.9v.9a.193.193,0,0,0,.386,0v-.9h.9a.193.193,0,1,0,0-.386h-.9v-.9a.193.193,0,0,0-.386,0v.9h-.9a.193.193,0,0,0,0,.386Z" transform="translate(-2.728 -2.69)" fill="#00b564"/>
      </g>
    </g>
  </g>
</svg>
