<svg xmlns="http://www.w3.org/2000/svg" width="16" height="16" viewBox="0 0 16 16">
  <g id="company" transform="translate(-205 -17)">
    <rect id="Rectangle_1321" data-name="Rectangle 1321" width="16" height="16" transform="translate(205 17)" fill="none"/>
    <g id="add_company_popup" transform="translate(200.755 14.205)">
      <g id="Group_15561" data-name="Group 15561" transform="translate(6.75 4.094)">
        <path id="Path_6692" data-name="Path 6692" d="M9.6,4.094h7.292a.556.556,0,0,0,.6-.5h0a.556.556,0,0,0-.6-.5H9.6a.556.556,0,0,0-.6.5H9A.556.556,0,0,0,9.6,4.094Z" transform="translate(-7.747 -3.361)" fill="#0ec2cc"/>
        <path id="Path_6693" data-name="Path 6693" d="M17.122,7.031H7.368A.621.621,0,0,0,7.3,8.269V18.585a.827.827,0,0,0,.824.825h3.022a.276.276,0,0,0,.275-.275V17.759a.276.276,0,0,1,.275-.275h1.1a.276.276,0,0,1,.275.275v1.375a.276.276,0,0,0,.275.275h3.022a.827.827,0,0,0,.824-.825V8.269a.621.621,0,0,0-.069-1.238Zm-7.075,9.078a.276.276,0,0,1-.275.275h-.55a.276.276,0,0,1-.275-.275v-.55a.276.276,0,0,1,.275-.275h.55a.276.276,0,0,1,.275.275Zm0-2.2a.276.276,0,0,1-.275.275h-.55a.276.276,0,0,1-.275-.275v-.55a.276.276,0,0,1,.275-.275h.55a.276.276,0,0,1,.275.275Zm0-2.2a.276.276,0,0,1-.275.275h-.55a.276.276,0,0,1-.275-.275v-.55a.276.276,0,0,1,.275-.275h.55a.276.276,0,0,1,.275.275Zm0-2.2a.276.276,0,0,1-.275.275h-.55a.276.276,0,0,1-.275-.275v-.55a.276.276,0,0,1,.275-.275h.55a.276.276,0,0,1,.275.275Zm2.748,6.6a.276.276,0,0,1-.275.275h-.55a.276.276,0,0,1-.275-.275v-.55a.276.276,0,0,1,.275-.275h.55a.276.276,0,0,1,.275.275Zm0-2.2a.276.276,0,0,1-.275.275h-.55a.276.276,0,0,1-.275-.275v-.55a.276.276,0,0,1,.275-.275h.55a.276.276,0,0,1,.275.275Zm0-2.2a.276.276,0,0,1-.275.275h-.55a.276.276,0,0,1-.275-.275v-.55a.276.276,0,0,1,.275-.275h.55a.276.276,0,0,1,.275.275Zm0-2.2a.276.276,0,0,1-.275.275h-.55a.276.276,0,0,1-.275-.275v-.55a.276.276,0,0,1,.275-.275h.55a.276.276,0,0,1,.275.275Zm2.748,6.6a.276.276,0,0,1-.275.275h-.55a.276.276,0,0,1-.275-.275v-.55a.276.276,0,0,1,.275-.275h.55a.276.276,0,0,1,.275.275Zm0-2.2a.276.276,0,0,1-.275.275h-.55a.276.276,0,0,1-.275-.275v-.55a.276.276,0,0,1,.275-.275h.55a.276.276,0,0,1,.275.275Zm0-2.2a.276.276,0,0,1-.275.275h-.55a.276.276,0,0,1-.275-.275v-.55a.276.276,0,0,1,.275-.275h.55a.276.276,0,0,1,.275.275Zm0-2.2a.276.276,0,0,1-.275.275h-.55a.276.276,0,0,1-.275-.275v-.55a.276.276,0,0,1,.275-.275h.55a.276.276,0,0,1,.275.275Z" transform="translate(-6.75 -6.008)" fill="#009098"/>
      </g>
    </g>
  </g>
</svg>
