<svg xmlns="http://www.w3.org/2000/svg" width="16" height="16" viewBox="0 0 16 16">
  <g id="employee" transform="translate(-250 -17)">
    <rect id="Rectangle_1323" data-name="Rectangle 1323" width="16" height="16" transform="translate(250 17)" fill="none"/>
    <g id="add_employee_popup" transform="translate(-35.465 -71.222)">
      <path id="Subtraction_38" data-name="Subtraction 38" d="M20893.578,19726.074h0a1.115,1.115,0,0,1-1.113-1.111V19724a3.1,3.1,0,0,1,2.965-3.1l.607,2.434a3.082,3.082,0,0,0-1.1,2.361v.258Zm3.574-3.344,0,0,.127-.547-.744-1.295h1.4a2.97,2.97,0,0,0,.551.469l-.471.826-.09.523-.027-.1a3.031,3.031,0,0,0-.75.127Zm.287-2.592h0a2.962,2.962,0,1,1,2.895-4.215c-.062,0-.129-.006-.207-.006a2.966,2.966,0,0,0-2.687,4.219Z" transform="translate(-20606 -19625.117)" fill="#0ec2cc"/>
      <path id="Icon_awesome-user-tie" data-name="Icon awesome-user-tie" d="M5.184,5.924A2.962,2.962,0,1,0,2.222,2.962,2.962,2.962,0,0,0,5.184,5.924ZM7.4,6.679,6.295,11.108,5.554,7.961l.741-1.3H4.073l.741,1.3-.741,3.147L2.967,6.679A3.1,3.1,0,0,0,0,9.775v.963a1.111,1.111,0,0,0,1.111,1.111H9.257a1.111,1.111,0,0,0,1.111-1.111V9.775A3.1,3.1,0,0,0,7.4,6.679Z" transform="translate(290.097 91.491)" fill="#009098"/>
    </g>
  </g>
</svg>
